<?xml version="1.0" standalone="no"?>
<!DOCTYPE svg PUBLIC "-//W3C//DTD SVG 20010904//EN"
 "http://www.w3.org/TR/2001/REC-SVG-20010904/DTD/svg10.dtd">
<svg version="1.0" xmlns="http://www.w3.org/2000/svg"
 width="512.000000pt" height="512.000000pt" viewBox="0 0 512.000000 512.000000"
 preserveAspectRatio="xMidYMid meet">
<metadata>
Created by potrace 1.14, written by Peter Selinger 2001-2017
</metadata>
<g transform="translate(0.000000,512.000000) scale(0.100000,-0.100000)"
fill="#000000" stroke="none">
<path d="M2468 4905 c-2 -1 -28 -5 -58 -9 -30 -3 -66 -8 -80 -11 -14 -2 -38
-7 -55 -11 -124 -24 -319 -111 -444 -197 -68 -47 -228 -196 -274 -255 -189
-244 -281 -526 -270 -832 7 -218 7 -236 -7 -287 -30 -106 -126 -228 -240 -305
-191 -128 -291 -311 -291 -534 0 -47 2 -88 5 -92 3 -5 8 -23 11 -41 8 -48 53
-149 88 -201 43 -63 138 -152 196 -184 27 -14 91 -34 142 -45 111 -22 152 -38
197 -76 67 -56 114 -167 105 -245 -13 -112 -65 -186 -174 -251 -85 -51 -137
-108 -183 -202 -75 -153 -88 -309 -41 -470 38 -130 144 -268 265 -346 135 -87
330 -120 484 -80 128 33 207 80 328 197 60 58 125 118 146 132 84 61 213 88
323 68 91 -17 164 -62 278 -172 154 -149 237 -199 384 -230 63 -13 206 -14
245 -2 11 4 29 8 39 10 39 8 127 48 178 81 272 173 365 518 221 810 -51 103
-96 153 -181 200 -71 40 -114 83 -147 145 -19 37 -23 60 -23 130 0 98 21 149
84 208 52 49 100 71 199 89 107 19 185 58 262 133 127 121 192 274 191 445 -1
86 -3 104 -25 177 -44 151 -135 264 -291 363 -112 71 -201 185 -229 294 -13
50 -13 66 -1 186 23 229 1 409 -75 601 -171 431 -550 730 -1015 799 -47 7
-261 15 -267 10z"/>
</g>
</svg>
